<?xml version="1.0" encoding="UTF-8"?>
<svg width="95px" height="50px" viewBox="0 0 95 50" version="1.1" xmlns="http://www.w3.org/2000/svg" xmlns:xlink="http://www.w3.org/1999/xlink">
    <!-- Generator: Sketch 62 (91390) - https://sketch.com -->
    <title>mysql</title>
    <desc>Created with Sketch.</desc>
    <defs>
        <polygon id="path-1" points="0 0.255433896 21.4938167 0.255433896 21.4938167 15.4303059 0 15.4303059"></polygon>
        <polygon id="path-3" points="0.0324528489 0.882461538 35.1 0.882461538 35.1 35.5452 0.0324528489 35.5452"></polygon>
    </defs>
    <g id="index" stroke="none" stroke-width="1" fill="none" fill-rule="evenodd">
        <g id="index-1920" transform="translate(-1201.000000, -926.000000)">
            <g id="mysql" transform="translate(1201.000000, 926.000000)">
                <g id="Group-3" transform="translate(0.000000, 31.000000)">
                    <mask id="mask-2" fill="white">
                        <use xlink:href="#path-1"></use>
                    </mask>
                    <g id="Clip-2"></g>
                    <path d="M-0.000183333333,15.2985412 L3.07065,15.2985412 L3.07065,2.68771765 L7.93173333,13.5912471 C8.44415,14.9041882 9.2114,15.4303059 10.7468167,15.4303059 C12.2822333,15.4303059 13.0494833,14.9041882 13.5619,13.5912471 L18.4239,2.68771765 L18.4239,15.2985412 L21.4938167,15.2985412 L21.4938167,2.68771765 C21.4938167,1.5056 20.9823167,0.848658824 19.9584,0.586070588 C17.6557333,-0.201694118 15.9919833,0.455247059 15.3530667,2.16254118 L10.6194,12.9343059 L6.01315,2.16254118 C5.37331667,0.586070588 3.71048333,-0.0708705882 1.4069,0.586070588 C0.512233333,0.980423529 -0.000183333333,1.5056 -0.000183333333,2.81948235 L-0.000183333333,15.2985412 Z" id="Fill-1" fill="#969BA5" mask="url(#mask-2)"></path>
                </g>
                <path d="M24,36 L27.1306461,36 L27.1306461,42.6247441 C27.1306461,43 27.2605445,43.875 28.9567005,43.875 L35.8693539,43.875 L35.8693539,36 L39,36 L39,46.7498721 C39,49.3748721 35.6086225,50 34.0432995,50 L24,50 L24,48.0001279 L34.0432995,48.0001279 C36.1300854,47.7502559 35.8693539,46.8752559 35.8693539,46.5 L35.8693539,45.7503838 L29.2174319,45.7503838 C26.0867859,45.7503838 24.130833,44.3756397 24,42.8755118 C24,42.6247441 24.130833,36.1253838 24,36" id="Fill-4" fill="#969BA5"></path>
                <g id="Group-8" transform="translate(59.000000, 0.000000)">
                    <mask id="mask-4" fill="white">
                        <use xlink:href="#path-3"></use>
                    </mask>
                    <g id="Clip-7"></g>
                    <path d="M32.3949231,27.5578154 C30.462,27.5578154 29.0450769,27.6870462 27.7573846,28.2021231 C27.3706154,28.3304308 26.8546154,28.3304308 26.7263077,28.8464308 C26.8546154,28.9756615 26.9838462,29.3615077 27.1121538,29.6190462 C27.3706154,30.1350462 27.8856923,30.7784308 28.4007692,31.0368923 C28.9158462,31.4227385 29.4318462,31.8095077 29.9478462,32.1953538 C30.8487692,32.7113538 31.8789231,33.0972 32.7816923,33.7424308 C33.2967692,34.1282769 33.8118462,34.5150462 34.3278462,34.9018154 C34.5853846,35.0301231 34.7146154,35.4168923 35.1004615,35.5452 L35.1004615,35.4168923 C34.9712308,35.1593538 34.842,34.9018154 34.7146154,34.6433538 C34.4561538,34.3858154 34.1986154,34.1282769 33.9410769,33.9999692 C33.2967692,33.0972 32.3949231,32.1953538 31.4930769,31.5519692 C30.7204615,31.0368923 29.0450769,30.2633538 28.7875385,29.3615077 C29.3026154,29.3615077 29.9469231,29.1039692 30.462,28.9756615 C31.2355385,28.7172 32.0081538,28.8464308 32.9109231,28.5888923 C33.2967692,28.4596615 33.6835385,28.3304308 34.0693846,28.2021231 L34.0693846,27.9445846 C33.6835385,27.5578154 33.2967692,26.9135077 32.9109231,26.5276615 C31.7506154,25.4965846 30.3336923,24.4655077 28.9158462,23.5636615 C28.1441538,23.0485846 27.2413846,22.7910462 26.4687692,22.4042769 C26.2112308,22.2759692 25.6952308,22.1467385 25.5669231,21.8892 C25.1801538,21.3741231 24.9226154,20.7298154 24.5358462,20.0855077 C23.8915385,18.7968923 23.1189231,17.2507385 22.6038462,15.9630462 C22.2170769,15.0612 21.9595385,14.1593538 21.4444615,13.2575077 C18.9955385,9.13504615 16.2909231,6.68704615 12.1684615,4.36735385 C11.2656923,3.85227692 10.2355385,3.59473846 9.07615385,3.3372 C8.43184615,3.3372 7.91584615,3.20889231 7.27246154,3.20889231 C6.88569231,3.07966154 6.49892308,2.56458462 6.11215385,2.30704615 C4.69523077,1.53350769 1.21707692,-0.399415385 0.186,2.17781538 C-0.457384615,3.72396923 1.08876923,5.2692 1.73215385,6.04273846 C2.11892308,6.55781538 2.63492308,7.20212308 2.89153846,7.84643077 C3.02076923,8.23227692 3.14907692,8.74827692 3.27830769,9.13504615 C3.66507692,10.1652 4.05184615,11.3255077 4.56692308,12.3556615 C4.82446154,12.8707385 5.082,13.3858154 5.46876923,13.9018154 C5.598,14.1593538 5.98476923,14.2885846 6.11215385,14.6744308 C5.72630769,15.1904308 5.72630769,15.8338154 5.598,16.4781231 C4.69523077,19.1836615 5.082,22.5335077 6.24138462,24.4655077 C6.62815385,25.1098154 7.53,26.3984308 8.81861538,25.8833538 C9.84876923,25.4965846 9.72046154,24.0796615 9.978,22.9202769 C10.1063077,22.6618154 9.978,22.4042769 10.1063077,22.2759692 C10.4930769,22.9202769 10.7515385,23.5636615 11.1373846,24.2079692 C11.9109231,25.3673538 13.1986154,26.6559692 14.2287692,27.4285846 C14.7447692,27.8153538 15.2607692,28.5888923 16.0324528,28.8464308 L16.0324528,28.7172 C15.9041538,28.4596615 15.6456923,28.4596615 15.5183077,28.2021231 C15.1315385,27.8153538 14.6155385,27.3002769 14.2287692,26.7852 C13.1986154,25.4965846 12.2976923,23.9504308 11.5241538,22.4042769 C11.1373846,21.6316615 10.7515385,20.8590462 10.4930769,20.0855077 C10.3647692,19.8279692 10.3647692,19.3128923 10.1063077,19.1836615 C9.72046154,19.6987385 9.20538462,20.2138154 8.94784615,20.8590462 C8.43184615,21.8892 8.43184615,23.1778154 8.30261538,24.4655077 L8.17430769,24.4655077 C7.40169231,24.3372 7.14415385,23.4353538 6.88569231,22.7910462 C6.11215385,21.1156615 5.98476923,18.4110462 6.62815385,16.3488923 C6.75738462,15.8338154 7.53,14.2885846 7.27246154,13.7725846 C7.14415385,13.2575077 6.62815385,12.9999692 6.37061538,12.7424308 C5.85553846,12.4839692 5.46876923,11.9688923 5.33953846,11.4538154 C4.82446154,10.1652 4.43769231,8.61904615 3.79430769,7.33135385 C3.53584615,6.68704615 3.02076923,6.04273846 2.63492308,5.52766154 C2.11892308,4.88335385 1.73215385,4.36735385 1.34538462,3.72396923 C1.21707692,3.46550769 1.08876923,3.07966154 1.21707692,2.69289231 C1.21707692,2.56458462 1.34538462,2.43535385 1.60384615,2.43535385 C1.86138462,2.17781538 2.76323077,2.56458462 3.14907692,2.69289231 C4.05184615,3.07966154 4.82446154,3.3372 5.46876923,3.85227692 C5.85553846,4.11073846 6.11215385,4.49658462 6.62815385,4.62581538 L7.14415385,4.62581538 C7.91584615,4.75412308 8.81861538,4.62581538 9.462,4.88335385 C10.7515385,5.2692 11.9109231,5.91350769 12.9410769,6.55781538 C16.0324528,8.49073846 18.6096923,11.3255077 20.4133846,14.8036615 C20.6709231,15.3187385 20.7992308,15.8338154 21.0576923,16.4781231 C21.5727692,17.6375077 22.2170769,18.7968923 22.7321538,19.9572 C23.2481538,21.1156615 23.7623077,22.2759692 24.4075385,23.1778154 C24.7943077,23.6928923 26.2112308,23.9504308 26.8546154,24.2079692 C27.3706154,24.4655077 28.0149231,24.5947385 28.53,24.8522769 C29.3026154,25.3673538 30.2044615,25.8833538 30.978,26.5276615 C31.1063077,26.5276615 32.3949231,27.1719692 32.3949231,27.5578154" id="Fill-6" fill="#969BA5" mask="url(#mask-4)"></path>
                </g>
                <path d="M67.1422723,7 C66.7134084,7 66.4288639,7 66,7.11146497 C66.1422723,7.44506369 66.5711361,7.66640127 66.8567042,8 C66.9989765,8.33359873 67.2855681,8.66719745 67.4278403,9 C67.8567042,8.77786624 68,8.44426752 68,8 C67.8567042,7.88933121 67.8567042,7.66640127 67.7144319,7.55573248 C67.7144319,7.22213376 67.2855681,7.11146497 67.1422723,7" id="Fill-9" fill="#969BA5"></path>
                <path d="M41.1288287,46 L50.1201525,46 C51.1471014,46 52.1740502,45.7478699 52.9451821,45.3692228 C54.3576969,44.7384456 55,43.9820553 55,42.8470178 L55,40.5769429 C55,39.6931319 54.2288681,38.9367415 52.8163534,38.3059644 C52.0452215,38.0538342 51.1471014,37.8017041 50.1201525,37.8017041 L46.3951624,37.8017041 C45.1105561,37.8017041 44.5970816,37.4230571 44.3394242,36.6666667 L44.3394242,36.4145365 L44.3394242,35.1529822 L44.3394242,34.9008521 C44.4682529,34.2700749 44.8538189,34.143558 45.8807677,34.0179447 L46.1375049,34.0179447 L55,34.0179447 L55,32 L46.2663336,32 C44.9817274,32 44.3394242,32.1256132 43.6980413,32.2521301 C41.8999606,32.7563904 41,33.7649109 41,35.2794991 L41,37.04441 C41,38.4324813 42.5413435,39.5675187 45.2393848,39.8196489 L46.1375049,39.8196489 L49.3490206,39.8196489 L49.7345866,39.8196489 C50.7615354,39.9461658 51.1471014,40.071779 51.4038386,40.450426 C51.5326673,40.5769429 51.6605758,40.8281694 51.6605758,40.9546863 L51.6605758,42.7205009 C51.6605758,42.972631 51.5326673,43.2247612 51.2750099,43.4768913 C51.0182726,43.7299251 50.503878,43.8555383 49.9913238,43.8555383 L49.7345866,43.8555383 L41.1288287,43.8555383 L41.1288287,46 Z" id="Fill-11" fill="#969BA5"></path>
                <path d="M75.1300166,41.5 C75.1300166,43.6252559 76.6855721,44.7501279 79.9257711,45 L80.8340299,45 L89,45 L89,43.0001279 L80.7040133,43.0001279 C78.8893532,43.0001279 78.1120398,42.5003838 78.1120398,41.5 L78.1120398,31 L75,31 L75,41.5 L75.1300166,41.5 Z" id="Fill-13" fill="#969BA5"></path>
                <path d="M60.3741523,42.0231178 C60.3741523,42.1563392 60.3741523,42.1563392 60.5043207,42.288609 C60.6335594,43.2183039 61.5419492,43.6170165 62.710676,43.6170165 L65.5650842,43.6170165 L62.9700831,41.2266443 L66.6027128,41.2266443 L68.9392365,43.3515253 C69.3288121,43.0860341 69.5872894,42.8195914 69.7174579,42.288609 L69.7174579,42.0231178 L69.7174579,34.7187797 L69.7174579,34.4532886 C69.5872894,33.656815 68.6798294,33.1248811 67.5120324,33.1248811 L62.710676,33.1248811 C61.2834719,33.1248811 60.3741523,33.7890848 60.3741523,34.7187797 L60.3741523,42.0231178 Z M57,42.1563392 L57,34.4532886 C57,32.4606773 58.2979654,31.2654912 61.023135,31 L61.9315248,31 L67.9006782,31 L68.809068,31 C71.4040691,31.397761 72.7029643,32.5938987 72.7029643,34.4532886 L72.7029643,42.1563392 C72.7029643,43.7492863 72.1832203,44.5467114 70.8861846,45.0776938 L74,48 L70.3664406,48 L67.9006782,45.7418976 L65.3056771,45.8751189 L61.9315248,45.8751189 C61.4127106,45.8751189 60.7637278,45.7418976 60.1147451,45.6096278 C57.9093196,44.945424 57,43.8825077 57,42.1563392 L57,42.1563392 Z" id="Fill-15" fill="#969BA5"></path>
                <path d="M93.6476291,46 L94,46 L94,44 L93.4124341,44 L92.9412013,45.3748321 L92.4708114,44 L91.8824025,44 L91.8824025,46 L92.2356164,46 L92.2356164,44.4997761 L92.8231823,46 L93.0592202,46 L93.6476291,44.4997761 L93.6476291,46 Z M90.4703899,46 L90.9407798,46 L90.9407798,44.249888 L91.5291886,44.249888 L91.5291886,44 L90,44 L90,44.3752799 L90.4703899,44.3752799 L90.4703899,46 Z" id="Fill-17" fill="#969BA5"></path>
            </g>
        </g>
    </g>
</svg>