<svg width="170" height="42" xmlns="http://www.w3.org/2000/svg" xmlns:xlink="http://www.w3.org/1999/xlink">
 <!-- Generator: Sketch 62 (91390) - https://sketch.com -->
 <title>postgresql</title>
 <desc>Created with Sketch.</desc>
 <defs>
  <polygon points="0.0809458192 0.6636 39.9432585 0.6636 39.9432585 41.898345 0.0809458192 41.898345" id="path-1"/>
  <polygon points="0 0.733585354 39.9765361 0.733585354 39.9765361 42 0 42" id="path-3"/>
 </defs>
 <g>
  <title>background</title>
  <rect fill="none" id="canvas_background" height="402" width="582" y="-1" x="-1"/>
 </g>
 <g>
  <title>Layer 1</title>
  <path fill-opacity="0.9" fill="#969696" id="Fill-1" d="m87.928291,14.097866l0,2.936876l-1.928291,0l0,0.881691l1.928291,0l0,6.169145c0,0.587196 0.215127,1.272258 0.750491,1.565855c1.070727,0.392362 2.249509,0.392362 3.321218,0.293598l0,-0.880793c-0.750491,0.097866 -1.500982,0.195732 -2.250491,-0.195732c-0.428291,-0.294496 -0.428291,-0.782928 -0.428291,-1.273155l0,-5.678918l2.570727,0c0,-0.391464 0,-0.587195 -0.107073,-0.978659l-2.570727,0l0,-2.937774c-0.214145,0.097866 -0.749509,0.097866 -1.285854,0.097866"/>
  <path fill-opacity="0.9" fill="#969696" id="Fill-3" d="m76.269069,16.771352c-1.374744,0.830065 -1.374744,3.214719 0.317025,3.940194c2.220143,0.725474 4.651636,0.518196 6.977454,1.244621c1.164364,0.414558 1.269069,2.073736 0.21232,2.591933c-1.480419,0.725474 -3.277862,0.621835 -4.969631,0.414557c-1.162424,-0.207279 -2.113499,-0.932754 -2.220143,-2.177376l-1.586094,0c0.21135,0.829115 0.423669,1.762819 1.163394,2.281015c1.268099,0.830065 2.854193,0.830065 4.228937,0.933704c1.479449,0 3.171217,-0.103639 4.440286,-0.830065c1.163394,-0.621835 1.480419,-2.177375 0.846369,-3.213768c-0.422699,-0.726425 -1.374743,-1.037343 -2.220143,-1.244621c-1.797443,-0.414557 -3.700562,-0.414557 -5.498006,-0.725475c-0.634049,-0.207279 -1.268099,-0.622787 -1.268099,-1.348261c0,-0.933704 1.05578,-1.348261 1.902149,-1.55554c1.373774,-0.207278 2.855163,-0.310918 4.229906,0.310918c0.738755,0.310918 0.951075,1.037343 1.162425,1.762818l1.586093,0c-0.106644,-0.829114 -0.423669,-1.762818 -1.163393,-2.281014c-1.374744,-0.933705 -3.172188,-0.933705 -4.758282,-0.829114c-1.056749,0 -2.324848,0 -3.382567,0.725474"/>
  <path fill-opacity="0.9" fill="#969696" id="Fill-5" d="m108.724156,16.330417c-0.595277,0.318617 -0.993039,0.955851 -1.290677,1.594059l0,-1.594059l-1.38898,0c-0.100123,3.294323 0,6.37526 0,9.669583l1.289767,0l0,-4.994587c0,-1.168262 0.396851,-2.443703 1.290677,-3.187143c0.992128,-0.743439 2.183593,-0.532002 3.375057,-0.532002l0,-1.274467c-1.191464,0 -2.184503,-0.106206 -3.275844,0.318616"/>
  <mask id="mask-2">
   <use id="svg_1" xlink:href="#path-1"/>
  </mask>
  <path fill-opacity="0.9" mask="url(#mask-2)" fill="#969696" id="Fill-7" d="m23.875814,1.39804c-1.724651,-0.3052 -3.549767,-0.407867 -5.275349,-0.101733c-1.013953,0.203466 -2.028837,0.6104 -2.84,1.119066c-2.84,-0.9156 -5.985116,-1.526 -8.926512,-0.9156c-2.130232,0.406934 -4.058604,1.628667 -5.174883,3.562534c-1.419535,2.239066 -1.723721,4.987733 -1.521861,7.6328c0.406512,2.952133 1.11721,5.802533 1.928372,8.652c0.709768,2.442533 1.520931,4.987733 2.942326,7.125066c0.708837,1.2208 1.826046,2.442534 3.245581,2.8504c1.217675,0.3052 2.333024,-0.102666 3.245582,-0.8148c0.406511,0.406934 1.014883,0.8148 1.623256,1.017334c1.725581,0.611333 3.652093,0.611333 5.377674,-0.101734c0.100465,2.341734 0,4.886 0.912558,7.023334c0.405582,1.12 0.913489,2.137333 1.926512,2.748666c1.117209,0.712134 2.333953,0.813867 3.653023,0.6104c1.115349,-0.203466 2.231628,-0.508666 3.144186,-1.12c1.014884,-0.6104 1.826047,-1.526933 2.231628,-2.646c1.116279,-2.442533 1.217674,-5.089466 1.31907,-7.735466c2.536744,0.203466 5.173953,-0.406934 7.101395,-2.239067c0.709768,-0.611333 1.31814,-1.628667 1.115349,-2.646933c-0.304186,-0.9156 -1.31814,-1.526 -2.231628,-1.4252c-1.013954,0.101733 -1.926512,0.407866 -2.941395,0.407866c2.231628,-3.867733 3.956279,-7.938933 4.666976,-12.2136c0.304187,-1.832133 0.506047,-3.6652 0,-5.497333c-0.305116,-1.017333 -1.014883,-1.8312 -1.725581,-2.544267c-1.622326,-1.628666 -3.956279,-2.747733 -6.187907,-3.1556c-2.535814,-0.6104 -5.173953,-0.3052 -7.608372,0.407867"/>
  <path fill="#13171B" id="Fill-10" d="m29.113029,13.285525c0.523892,-0.344659 1.363079,-0.344659 1.886971,-0.17233c0,0.603154 -0.943966,1.120932 -1.572636,0.776273c-0.209557,0 -0.62867,-0.345449 -0.314335,-0.603943"/>
  <path fill="#13171B" id="Fill-12" d="m16.377302,14.07354c0.470548,-0.14708 1.130178,-0.07354 1.505754,0.22062c0.282328,0.220621 0,0.514781 -0.282329,0.588996c-0.564658,0.29416 -1.505754,0 -1.600727,-0.515456c0,-0.14708 0.188219,-0.29416 0.377302,-0.29416"/>
  <path fill-opacity="0.9" fill="#969696" id="Fill-14" d="m26,3.345176c2.141443,-0.501086 4.672077,-0.502005 6.716222,0.299731c1.460358,0.501085 2.824312,1.705529 3.796397,3.00927c0.487381,0.601302 0.487381,1.403038 0.487381,2.205694c0,1.804826 -0.389191,3.508516 -0.779274,5.314262c-0.87568,3.107647 -2.140551,6.216215 -3.796397,9.023211c-0.194596,0.300651 -0.389192,0.502005 -0.486489,0.802656c0,-0.100217 -0.097298,-0.300651 -0.097298,-0.300651c0.194595,-0.502005 0.486489,-1.103307 0.583787,-1.604392c0.390083,-1.604392 0.09819,-3.309001 -0.097298,-4.913394c-0.194596,-1.503255 0.389191,-3.108567 0.389191,-4.611822c0.09819,-0.70152 -0.291893,-1.403958 -0.486489,-2.205695c-1.071168,-2.306831 -2.627931,-4.412308 -4.769374,-5.815346c-0.390084,-0.602222 -0.97387,-0.902873 -1.460359,-1.203524"/>
  <path fill-opacity="0.9" fill="#969696" id="Fill-16" d="m18.872695,3.104449c2.829334,-0.413533 5.760609,0.412587 8.08487,2.270176c1.819189,1.445001 3.334406,3.508883 4.042435,5.882205c-1.314116,0 -2.830261,-0.103147 -3.94142,0.825174c-1.011072,0.826121 -1.11116,2.271122 -0.909131,3.405737c0.504146,2.890002 2.223246,5.263324 3.334406,7.739794c0.303044,0.61888 0.708029,1.135561 1.213101,1.651294c-0.505072,0.309441 -1.011072,0.412588 -1.314115,1.032415c-0.404058,0.825174 -0.303044,1.754441 -0.404058,2.682762c-0.303044,2.476469 -0.506,5.056085 -0.909131,7.532554c-0.202956,1.239654 -0.708029,2.477415 -1.819189,3.096296c-1.112086,0.515734 -2.425275,0.929267 -3.739391,0.722974c-1.213101,-0.20724 -2.022144,-1.341855 -2.224173,-2.477415c-0.303044,-0.928322 -0.303044,-1.960736 -0.404058,-2.889057c-0.101015,-2.270175 -0.101015,-4.643497 -0.101015,-6.913673c0.101015,-0.929267 -0.404058,-1.858535 -1.212174,-2.271122c-0.404985,-0.206293 -0.809043,-0.30944 -1.314116,-0.30944c0.404058,-1.651295 1.314116,-3.199443 1.717247,-4.952938c0.404985,-2.167029 0.202956,-4.231857 -0.303044,-6.398886c-0.202029,-1.031468 -1.010145,-1.960735 -2.02029,-2.270175c-1.618086,-0.412587 -3.133304,0.206293 -4.649449,0.928321c0.202029,-2.26923 0.809043,-4.746645 2.223247,-6.70738c1.314115,-1.445001 2.931275,-2.373322 4.649448,-2.579616"/>
  <path fill-opacity="0.9" fill="#969696" id="Fill-18" d="m7.125576,3.163881c2.625129,-0.412529 5.249295,0 7.874424,0.721927c-1.156135,1.238536 -1.99556,2.580203 -2.415273,4.12719c-0.629569,2.064541 -0.945316,4.231268 -0.839425,6.501128c0.103966,1.546986 0.103966,3.095865 -0.210819,4.642851c-0.314784,1.960463 0.525604,4.024057 2.100489,5.365725c-1.050245,1.237589 -2.100489,2.26986 -3.14977,3.508395c-0.419713,0.515662 -1.050244,1.134457 -1.784741,0.928192c-0.839425,-0.309397 -1.364066,-1.031324 -1.88967,-1.754197c-1.364065,-2.063595 -2.099525,-4.333455 -2.834022,-6.706447c-0.840388,-2.683335 -1.469957,-5.468857 -1.889669,-8.358458c-0.209857,-2.166727 -0.105891,-4.436586 1.049281,-6.293916c0.840388,-1.341668 2.310345,-2.26986 3.989195,-2.68239"/>
  <path fill-opacity="0.9" fill="#969696" id="Fill-20" d="m29.011151,13.769424c-0.320024,0.297613 0,0.595227 0.320024,0.695342c0.640049,0.396818 1.601099,-0.19932 1.601099,-0.893751c-0.533373,-0.099205 -1.281074,-0.099205 -1.921123,0.198409m-0.320024,-0.297614c0.960073,-0.595228 2.347822,-0.496023 3.308873,-0.396818c-0.107653,1.389774 -0.533373,2.877842 -0.427677,4.366821c0.214328,1.786593 0.640048,3.771594 -0.21335,5.558187c-1.280096,-2.282615 -2.881195,-4.466026 -3.307894,-7.047166c-0.107653,-0.892841 -0.107653,-1.885797 0.640048,-2.481024"/>
  <path fill-opacity="0.9" fill="#969696" id="Fill-22" d="m15.501845,13.706426c-0.194693,0.100786 -0.388496,0.201572 -0.388496,0.403144c0.09779,0.705502 1.06681,1.210356 1.648222,0.705502c0.290706,-0.201572 0.485399,-0.50393 0.290706,-0.806288c-0.48451,-0.403144 -1.065922,-0.403144 -1.550432,-0.302358m-3.199543,0.604716c1.163713,-0.705502 2.423439,-1.311142 3.780955,-1.311142c0.678314,0 1.259726,0.504854 1.454419,1.311142c0.581411,2.520573 0.775215,5.344429 -0.387608,7.764216c-0.388497,0.907998 -0.776105,1.915858 -1.066811,2.924642c-2.03583,0 -3.684053,-1.714286 -3.974759,-3.630143c-0.291594,-1.10957 0.096902,-2.218216 0.096902,-3.227c0.193804,-1.411928 0.096902,-2.621359 0.096902,-3.831715"/>
  <path fill-opacity="0.9" fill="#969696" id="Fill-24" d="m31.341383,26.302367c0.287548,-0.213501 0.671824,-0.427982 1.054341,-0.213501c1.343647,0.854005 2.973082,0.427002 4.604276,0.213501c-0.959371,0.960756 -2.11044,1.387759 -3.453207,1.60224c-0.863522,0.10675 -1.726164,0.213501 -2.492957,-0.214481c-0.096728,-0.427003 -0.096728,-0.960756 0.287547,-1.387759"/>
  <path fill-opacity="0.9" fill="#969696" id="Fill-26" d="m15.906322,28.328006c0.801237,-0.464122 1.202774,-1.625491 2.004011,-2.321674c0.802156,-0.116031 1.50232,1.392366 0.802156,2.089613c-1.302929,1.973584 -3.908787,2.437706 -5.712489,1.276336c1.002465,-0.464122 2.00493,-0.464122 2.906322,-1.044275"/>
  <path fill-opacity="0.9" fill="#969696" id="Fill-28" d="m127.145953,11.917966c-2.248097,1.224891 -2.145953,4.999688 0.306431,5.918591c2.554527,0.917966 5.314279,1.020898 7.868806,1.632875c0.612862,0.203993 1.328804,0.407985 1.532154,1.122895c0.613799,1.325951 0.103081,3.16282 -1.327867,3.672801c-2.145953,0.612913 -4.599273,0.612913 -6.642146,-0.203993c-1.328804,-0.509981 -2.043809,-1.938864 -2.14689,-3.162819c-0.509781,0 -1.225723,0 -1.736441,0.101996c0.101207,1.325951 0.408574,2.652838 1.327867,3.469744c1.635235,1.325952 3.781188,1.427948 5.825934,1.529944c1.839522,0 3.882394,-0.203992 5.415486,-1.223955c1.839522,-1.326887 2.043809,-4.694635 -0.204288,-5.81753c-2.043809,-1.019962 -4.291905,-1.121958 -6.437858,-1.529944c-1.022374,-0.305988 -2.248097,-0.407985 -3.168326,-1.020898c-1.225724,-1.121959 -0.612862,-3.367748 0.920229,-3.775733c2.042872,-0.509981 4.188825,-0.611977 6.131428,0.101996c1.225723,0.408921 1.635235,1.632876 1.839522,2.653775l1.736442,0c0,-1.122895 -0.407638,-2.244854 -1.327867,-3.06176c-1.430948,-1.22489 -3.474757,-1.325951 -5.211199,-1.325951c-1.431884,0.101061 -3.168326,0.101061 -4.701417,0.917966"/>
  <path fill-opacity="0.9" fill="#969696" id="Fill-30" d="m61.010194,17.438749c-0.419253,1.208919 -1.8876,1.510918 -3.145358,1.611584c-2.203,0.100666 -4.299264,0 -6.397451,0l0,-5.740748l6.187825,0c1.049093,0 2.306852,0.201333 2.935731,1.006663c0.733692,0.705587 0.839467,2.014249 0.419253,3.122501m0.734654,-4.330496c-0.944281,-0.806254 -2.307814,-1.108253 -3.565572,-1.108253c-2.726105,0 -5.45221,0.100666 -8.179276,0.100666l0,13.899334l1.363533,0c0,-2.015172 -0.105775,-4.029422 0,-5.842338l6.920556,0c1.677973,-0.100666 3.669423,-0.80533 4.299264,-2.416914c0.733693,-1.61066 0.525028,-3.625833 -0.838505,-4.632495"/>
  <path fill-opacity="0.9" fill="#969696" id="Fill-32" d="m158,12.199908l0,13.800092l12,0l0,-1.19945c-3.427911,-0.100871 -6.856747,0 -10.387301,-0.100871l0,-12.699679c-0.503968,0.199908 -1.10873,0.199908 -1.612699,0.199908"/>
  <path fill-opacity="0.9" fill="#969696" id="Fill-34" d="m145.548801,12.41641c-1.978594,0.414479 -3.853102,1.861836 -4.477619,3.827054c-0.625473,2.171984 -0.4173,4.654115 1.144949,6.412569c1.354076,1.551688 3.435801,2.276314 5.519436,2.276314c2.289898,0.103383 4.685792,-0.517861 6.143954,-2.276314c2.08268,-2.585515 1.770421,-6.826099 -0.937731,-8.791318c-1.977639,-1.861836 -4.789878,-1.965218 -7.392989,-1.448305m-2.708153,-0.310148c2.083635,-1.033826 4.373533,-1.24154 6.66534,-1.033826c2.186767,0.206765 4.269447,0.930443 5.727609,2.585514c1.769467,1.861836 2.186767,4.86088 1.354077,7.239629c-0.4173,1.344923 -1.354077,2.379698 -2.291808,3.310142c0.83269,0.517861 1.666335,1.138157 2.499025,1.758453c-0.416345,0.41353 -0.728604,0.620295 -1.144949,1.033826c-0.833645,-0.515965 -1.666335,-1.240592 -2.499025,-1.654122c-0.624517,0 -1.354076,0.41353 -2.083635,0.516913c-1.874507,0.413531 -3.956233,0.413531 -5.83074,0c-2.083635,-0.41353 -4.16536,-1.551688 -5.207178,-3.413524c-1.144949,-1.757504 -1.24999,-4.137202 -0.729559,-5.999038c0.521387,-1.965218 1.771377,-3.516906 3.540843,-4.343967"/>
  <path fill-opacity="0.9" fill="#969696" id="Fill-36" d="m87.713724,13l1.500491,0l0,3.17485l2.572552,0c0,0.424155 0,0.635747 0.107108,1.058931l-2.572552,0l0,6.139079c0,0.424154 0,1.05893 0.428431,1.376318c0.64363,0.317388 1.393384,0.211592 2.250246,0.211592l0,0.953135c-1.178185,0.105796 -2.357353,0.210621 -3.322306,-0.317388c-0.642646,-0.318359 -0.856862,-1.058931 -0.748772,-1.694677l0,-6.668059l-1.928922,0l0,-0.952164l1.928922,0c-0.215198,-1.270523 -0.215198,-2.223657 -0.215198,-3.281617"/>
  <path fill-opacity="0.9" fill="#969696" id="Fill-38" d="m72.507423,23.780247c-0.831925,0.82472 -2.080766,1.236607 -3.225617,1.236607c-1.351878,0.102028 -2.70471,-0.206888 -3.640625,-1.030664c-1.248841,-1.132691 -1.352832,-2.987131 -0.93687,-4.533599c0.416917,-1.338635 1.768795,-2.265383 3.225617,-2.368355c1.351878,-0.206888 2.8087,-0.103916 4.057542,0.617832c0.936869,0.51486 1.352831,1.545524 1.455868,2.575243c0.208935,1.33958 0,2.576188 -0.935915,3.502936m0.311971,-6.902899c-1.664803,-0.926748 -3.745569,-1.02972 -5.618354,-0.720804c-1.559859,0.308916 -3.120672,1.132691 -3.744616,2.575243c-0.624898,1.442552 -0.624898,3.19402 0.103991,4.739544c0.831925,1.545523 2.600719,2.369299 4.265522,2.472271c2.184757,0.205944 4.577495,-0.102972 6.138308,-1.751468c1.66385,-2.163355 1.351878,-5.975206 -1.144851,-7.314786"/>
  <path fill-opacity="0.9" fill="#969696" id="Fill-40" d="m76.374739,16.87487c0.951071,-0.621844 2.220136,-0.725485 3.277851,-0.830076c1.586088,-0.10269 3.382556,-0.10269 4.757295,0.830076c0.740692,0.414562 1.057715,1.347328 1.16242,2.281045l-1.585118,0c-0.105675,-0.725485 -0.422699,-1.34828 -1.16339,-1.762842c-1.374739,-0.518203 -2.749478,-0.518203 -4.228922,-0.310922c-0.845397,0.103641 -1.903112,0.518203 -1.903112,1.55556c-0.105675,0.621844 0.528373,1.244639 1.269064,1.347329c1.796468,0.415513 3.69958,0.415513 5.497987,0.726435c0.845396,0.207281 1.691763,0.518203 2.220136,1.244639c0.634047,1.036406 0.317023,2.591966 -0.845397,3.21381c-1.374739,0.726435 -2.960827,0.830076 -4.441241,0.830076c-1.37377,-0.103641 -3.066502,-0.103641 -4.228922,-0.933717c-0.739722,-0.518203 -1.057715,-1.348279 -1.16339,-2.281044l1.586088,0c0,1.243687 1.057716,2.073763 2.220136,2.177404c1.586088,0.207281 3.383525,0.414562 4.969613,-0.414563c1.057716,-0.519154 0.951072,-2.281045 -0.211349,-2.591966c-2.32581,-0.622795 -4.758264,-0.415514 -6.9784,-1.244639c-1.586088,-0.621844 -1.586088,-3.006529 -0.211349,-3.836605"/>
  <path fill-opacity="0.9" fill="#969696" id="Fill-42" d="m97.763044,17.252409c-1.031593,0.210608 -2.165306,0.631825 -2.681576,1.580528c-0.618389,1.158345 -0.618389,2.738872 -0.20613,3.897217c0.413205,1.264615 1.856113,1.896439 3.093836,2.108014c1.546918,0.210608 3.402084,0 4.537688,-1.264615c1.339843,-1.580528 1.133713,-4.3194 -0.516269,-5.584015c-1.237724,-0.842433 -2.784641,-0.842433 -4.227549,-0.737129m-1.134658,-0.947737c1.443853,-0.422182 3.1969,-0.422182 4.639807,0.104339c0.825465,0.316878 1.443853,0.948702 2.166253,1.475223c0,-0.526521 0.102119,-1.054007 0.102119,-1.475223l1.340788,0c0.10401,2.950446 0,5.899926 0.10401,8.850373c0.10212,1.264615 -0.207075,2.528264 -1.134658,3.370697c-1.237723,1.159311 -2.990771,1.369919 -4.536743,1.369919c-1.340788,0 -2.887706,-0.105304 -4.125429,-0.737129c-0.824518,-0.421216 -1.340788,-1.369919 -1.442907,-2.317656l1.339842,0c0.309195,0.631825 0.51627,1.368954 1.237723,1.684866c1.030649,0.422182 2.165307,0.422182 3.196901,0.422182c1.236777,-0.10627 2.577566,-0.315912 3.299965,-1.369919c0.720508,-1.053041 0.515324,-2.317656 0.515324,-3.582271c-1.444799,1.580527 -3.815289,1.89644 -5.877531,1.580527c-1.340788,-0.210608 -2.578512,-0.631824 -3.506095,-1.685831c-1.031593,-1.368953 -1.133713,-3.160089 -0.722399,-4.635312c0.413205,-1.475223 1.856112,-2.633568 3.40303,-3.054785"/>
  <path fill-opacity="0.9" fill="#969696" id="Fill-44" d="m108.840032,16.425324c1.085927,-0.425324 2.171855,-0.425324 3.159968,-0.425324l0,1.276949c-1.184648,0 -2.370203,-0.213638 -3.358315,0.531655c-0.888487,0.637987 -1.28337,2.021266 -1.28337,3.190908l0,5.000488l-1.284274,0c-0.098721,-3.298215 -0.098721,-6.383767 0,-9.681007l1.382995,0l0,1.595942c0.394883,-0.532631 0.790671,-1.170617 1.382996,-1.489611"/>
  <path fill-opacity="0.9" fill="#969696" id="Fill-46" d="m115.458842,17.58903c-1.042094,0.523188 -1.562663,1.675163 -1.770891,2.827138l8.957614,0c-0.104114,-0.627826 -0.312342,-1.36125 -0.728798,-1.885399c-1.666777,-1.883479 -4.58292,-2.092754 -6.457925,-0.941739m-2.708871,0.733424c0.93798,-1.570526 2.917099,-2.30395 4.687035,-2.30395c1.875004,-0.104638 3.959192,0.210235 5.208559,1.570526c1.042093,0.941739 1.354435,2.30299 1.354435,3.768878l-10.520276,0c0.104113,0.942699 0.416455,1.989077 1.145252,2.616903c1.354436,1.256612 3.437668,1.36125 5.104445,0.942699c1.145253,-0.313913 2.083233,-1.151975 2.395574,-2.30299l1.562663,0c-0.416455,1.570526 -1.875004,2.721541 -3.437668,3.140092c-2.187346,0.418551 -4.687989,0.418551 -6.562039,-0.941739c-1.875004,-1.361251 -2.188301,-4.396705 -0.93798,-6.490419"/>
  <mask id="mask-4">
   <use id="svg_2" xlink:href="#path-3"/>
  </mask>
  <path fill-opacity="0.9" mask="url(#mask-4)" fill="#969696" id="Fill-48" d="m23.774047,2.517293c-0.202791,0.101734 -0.405582,-0.101733 -0.608373,-0.101733c-2.434418,-0.508667 -5.173953,-0.3052 -7.304186,1.12c-2.535814,-0.916533 -5.275349,-1.4252 -8.013953,-1.221733c-2.028837,0.203466 -4.057675,1.221733 -5.173954,2.849466c-1.52093,2.137334 -1.723721,4.886 -1.52093,7.329467c0.405582,3.358133 1.31907,6.7172 2.231628,9.8728c0.709768,2.0356 1.419535,4.070267 2.637209,5.800667c0.608372,0.8148 1.420465,1.7304 2.536745,1.832133c1.013953,0.102667 1.825116,-0.406933 2.434418,-1.2208c1.115349,-1.323467 2.130233,-2.442533 3.145116,-3.664267c0.709768,0.406934 1.520931,0.508667 2.231628,0.6104c-0.405581,0.5096 -0.812093,1.221734 -1.420465,1.323467c-0.913488,0.406933 -2.028837,0.3052 -2.84093,0.9156c-0.405581,0.407867 -0.506977,1.12 -0.100465,1.4252c0.708837,0.713067 1.926512,0.9156 2.941395,1.018267c1.420465,0.101733 2.942326,-0.407867 4.057675,-1.323467c0,2.239067 0,4.6816 0.304186,6.920667c0.102325,1.323466 0.710697,2.748666 1.724651,3.562533c0.912558,0.8148 2.333023,1.018267 3.550698,0.8148c1.217674,-0.3052 2.434418,-0.6104 3.347907,-1.323467c1.013953,-0.916533 1.419534,-2.239066 1.623255,-3.4608c0.404651,-2.239066 0.608372,-4.579866 0.912558,-6.920666c2.535814,0.406933 5.47814,-0.102667 7.405582,-1.933867c0.405581,-0.406933 0.811163,-1.12 0.405581,-1.526933c-0.405581,-0.406934 -1.115349,-0.406934 -1.622325,-0.3052c-1.31907,0.3052 -2.739535,0.508666 -4.058605,-0.101734c2.232558,-3.664266 4.058605,-7.633733 5.071628,-11.8076c0.406512,-1.526 0.609302,-3.154666 0.609302,-4.885066c-0.101395,-0.9156 -0.20279,-1.933867 -0.709767,-2.646c-1.31907,-1.832134 -3.385116,-2.992267 -5.616744,-3.6036c-2.535814,-0.203467 -5.440931,-0.264134 -8.180465,0.651466m0.101395,-1.119066c2.435349,-0.611334 5.072558,-0.916534 7.608372,-0.407867c2.232558,0.407867 4.464186,1.526933 6.187907,3.1556c0.710698,0.712133 1.421395,1.526933 1.725581,2.544267c0.506977,1.832133 0.304186,3.664266 0,5.4964c-0.812093,4.274666 -2.434418,8.448533 -4.666976,12.214533c1.014883,0 1.928372,-0.306133 2.941395,-0.407867c0.913488,-0.101733 2.029767,0.5096 2.232558,1.4252c0.304186,1.017334 -0.406512,2.0356 -1.115349,2.646934c-2.010232,1.9964 -4.466046,2.380933 -7.076279,2.253066c-0.203721,2.747734 -0.128372,5.159467 -1.344186,7.822267c-0.506977,1.12 -1.31907,2.036533 -2.232558,2.646933c-1.013023,0.6104 -2.130233,0.9156 -3.143256,1.12c-1.218604,0.203467 -2.536744,0.101734 -3.653023,-0.611333c-1.013954,-0.6104 -1.964651,-1.771467 -2.369302,-2.891467c-0.812093,-2.239066 -0.43721,-4.5136 -0.640931,-6.8544c-1.723721,0.713067 -3.48186,0.687867 -5.206511,0.076534c-0.608372,-0.203467 -1.217675,-0.508667 -1.623256,-1.017334c-0.913489,0.712134 -2.130233,1.119067 -3.246512,0.813867c-1.419535,-0.406933 -2.434418,-1.627733 -3.245581,-2.8504c-1.31907,-2.238133 -2.231628,-4.6816 -2.942326,-7.124133c-0.811162,-2.8504 -1.52186,-5.699867 -1.927442,-8.651067c-0.304186,-2.748667 -0.20279,-5.497333 1.31907,-7.735467c1.115349,-1.832133 3.042791,-3.1556 5.173023,-3.562533c3.043721,-0.611333 6.086512,0 8.927442,0.813867c0.912558,-0.406934 1.826047,-0.9156 2.840931,-1.119067c1.927441,-0.306133 3.753488,-0.101733 5.477209,0.203467"/>
 </g>
</svg>