<svg xmlns="http://www.w3.org/2000/svg" xmlns:xlink="http://www.w3.org/1999/xlink" version="1.1" style="enable-background:new 0 0 512 512;" xml:space="preserve" width="512" height="512"><rect id="backgroundrect" width="100%" height="100%" x="0" y="0" fill="none" stroke="none"/>
















<g class="currentLayer" style=""><title>Layer 1</title><g id="svg_1" class="" fill="#919191" fill-opacity="1">
	<g id="svg_2" fill="#919191" fill-opacity="1">
		<path d="M474.562,37.446c-49.928-49.928-131.135-49.928-181.063,0L186.807,144.136c-6.672,6.672-12.543,14.6-18.375,24.301    c-9.701,5.832-17.629,11.703-24.301,18.375L37.438,293.503c-49.918,49.917-49.918,131.144,0,181.061    C62.403,499.528,95.181,512,127.97,512c32.789,0,65.567-12.472,90.532-37.435l106.692-106.691    c6.672-6.672,12.543-14.6,18.375-24.301c9.701-5.832,17.629-11.703,24.301-18.375l106.692-106.691    C524.479,168.59,524.479,87.363,474.562,37.446z M203.427,459.427c-41.583,41.583-109.271,41.583-150.854,0    c-41.594-41.594-41.594-109.26,0-150.854L159.24,201.906c5.906-5.906,12.979-11.156,22.24-16.521    c19.031-10.99,40.854-15.75,62.917-13.74c25.521,2.333,48.24,12.802,65.698,30.26c16.371,16.371,26.316,37.475,29.449,61.072    l-16.949,16.949c-0.896,0.895-2.003,1.542-2.949,2.378c1.415-23.957-7.182-47.863-24.634-65.315    c-23.417-23.427-58.958-31.573-91.052-19.146c-11.323,4.354-21.292,10.802-29.635,19.146L67.656,323.656    c-33.271,33.271-33.271,87.417,0,120.688c16.115,16.115,37.542,24.99,60.344,24.99s44.229-8.875,60.344-24.99l82.514-82.514    c2.24,0.115,4.482,0.306,6.715,0.306c8.85,0,17.549-1.167,26.105-2.96L203.427,459.427z M267.38,154.099L338.74,82.74    c24.167-24.167,66.354-24.167,90.521,0c24.958,24.958,24.958,65.563,0,90.521l-71.358,71.358    c-5.616-22.014-16.664-41.742-32.725-57.796C309.125,170.763,289.397,159.715,267.38,154.099z M295.669,295.695    c-23.004,6.99-47.173,0.646-63.596-15.768c-16.652-16.652-22.483-41.143-15.746-63.612c23.046-6.954,47.194-0.639,63.6,15.758    C296.582,248.728,302.41,273.223,295.669,295.695z M154.098,267.382c5.616,22.014,16.664,41.742,32.725,57.796    c16.059,16.059,35.786,27.107,57.802,32.719L173.26,429.26c-24.167,24.167-66.354,24.167-90.521,0    c-24.958-24.958-24.958-65.563,0-90.521L154.098,267.382z M459.427,203.427L352.76,310.094    c-5.906,5.906-12.979,11.156-22.24,16.521c-19.042,11.01-40.813,15.74-62.917,13.729c-25.521-2.323-48.24-12.792-65.698-30.25    c-16.371-16.371-26.316-37.475-29.449-61.072l16.949-16.949c0.896-0.895,2.003-1.542,2.949-2.378    c-1.414,23.957,7.182,47.863,24.634,65.315c16.115,16.115,37.542,24.99,60.344,24.99c10.344,0,20.688-1.969,30.708-5.844    c11.323-4.354,21.292-10.802,29.635-19.146l106.667-106.667c33.271-33.271,33.271-87.417,0-120.688    c-32.229-32.229-88.458-32.229-120.688,0l-82.671,82.671c-10.997-0.516-21.902,0.134-32.493,2.327L308.573,52.573    c41.583-41.583,109.271-41.583,150.854,0C501.021,94.167,501.021,161.833,459.427,203.427z" id="svg_3" fill="#919191" fill-opacity="1"/>
	</g>
</g><g id="svg_4">
</g><g id="svg_5">
</g><g id="svg_6">
</g><g id="svg_7">
</g><g id="svg_8">
</g><g id="svg_9">
</g><g id="svg_10">
</g><g id="svg_11">
</g><g id="svg_12">
</g><g id="svg_13">
</g><g id="svg_14">
</g><g id="svg_15">
</g><g id="svg_16">
</g><g id="svg_17">
</g><g id="svg_18">
</g></g></svg>