<svg width="662.84644" height="94.145668" xmlns="http://www.w3.org/2000/svg">
 <defs>
  <clipPath id="clp82">
   <path id="path1826" d="m1001.6,870.49l34.7,0l0,-13.08l-34.7,0l0,13.08z"/>
  </clipPath>
  <clipPath id="clp83">
   <path id="path1835" d="m1001.6,870.49l34.7,0l0,-13.08l-34.7,0l0,13.08z"/>
  </clipPath>
  <clipPath id="clp84">
   <path id="path1844" d="m1001.6,870.49l34.7,0l0,-13.08l-34.7,0l0,13.08z"/>
  </clipPath>
  <clipPath id="clp81">
   <path id="path1800" d="m1000.9,934.34l37.7,0l0,-12.1l-37.7,0l0,12.1z"/>
  </clipPath>
  <clipPath id="clipPath116030">
   <path id="path116032" d="m1001.6,870.49l34.7,0l0,-13.08l-34.7,0l0,13.08z"/>
  </clipPath>
  <clipPath id="clipPath116038">
   <path id="path116040" d="m1001.6,870.49l34.7,0l0,-13.08l-34.7,0l0,13.08z"/>
  </clipPath>
  <clipPath id="clipPath116046">
   <path id="path116048" d="m1001.6,870.49l34.7,0l0,-13.08l-34.7,0l0,13.08z"/>
  </clipPath>
 </defs>
 <g>
  <title>background</title>
  <rect fill="none" id="canvas_background" height="402" width="582" y="-1" x="-1"/>
 </g>
 <g>
  <title>Layer 1</title>
  <path fill="#969696" fill-rule="nonzero" id="path16197" d="m277.997181,59.116711l40.65191,0l-21.49528,-34.58269l-39.45125,62.52702l-17.95495,0l47.98587,-75.10828c2.08639,-3.03469 5.56353,-4.8681 9.42033,-4.8681c3.72988,0 7.20708,1.77022 9.23028,4.74166l48.1755,75.23472l-17.955,0l-8.4719,-13.97216l-41.15803,0l-8.97748,-13.97217zm186.50631,13.97217l0,-65.24555l-15.2366,0l0,71.63104c0,1.9599 0.7588,3.85655 2.2128,5.31065c1.4539,1.45415 3.4139,2.27602 5.5635,2.27602l69.4816,0l8.9775,-13.97216l-70.9988,0zm-252.06797,-11.69615c14.79428,0 26.80655,-11.94902 26.80655,-26.7431c0,-14.79403 -12.01227,-26.8063 -26.80655,-26.8063l-66.65566,0l0,79.21771l15.23056,0l0,-65.24554l50.4135,0c7.08118,0 12.77109,5.7532 12.77109,12.83413c0,7.08092 -5.68991,12.83418 -12.77109,12.83418l-42.95316,-0.06325l45.4819,39.64048l22.12823,0l-30.59965,-25.66831l6.95428,0zm-160.41412,25.66831c-21.86889,0 -39.61555,-17.70228 -39.61555,-39.57723c0,-21.875 17.74666,-39.64048 39.61555,-39.64048l46.04457,0c21.87495,0 39.60898,17.76548 39.60898,39.64048c0,21.87495 -17.73403,39.57723 -39.60898,39.57723l-46.04457,0zm45.02034,-13.97216c14.16841,0 25.64328,-11.44328 25.64328,-25.60507c0,-14.16185 -11.47487,-25.66831 -25.64328,-25.66831l-44.00268,0c-14.16184,0 -25.64329,11.50646 -25.64329,25.66831c0,14.16179 11.48145,25.60507 25.64329,25.60507l44.00268,0zm289.31865,13.97216c-21.875,0 -39.6403,-17.70228 -39.6403,-39.57723c0,-21.875 17.7653,-39.64048 39.6403,-39.64048l54.6874,0l-8.9143,13.97217l-44.7615,0c-14.1619,0 -25.6681,11.50646 -25.6681,25.66831c0,14.16179 11.5062,25.60507 25.6681,25.60507l54.9401,0l-8.9774,13.97216l-46.9743,0zm186.3167,-13.97216c-11.6963,0 -21.6222,-7.8396 -24.657,-18.65064l65.1193,0l8.9775,-13.97216l-74.0968,0c3.0348,-10.7478 12.9607,-18.65058 24.657,-18.65058l44.6983,0l9.0407,-13.97217l-54.7506,0c-21.875,0 -39.6403,17.76548 -39.6403,39.64048c0,21.87495 17.7653,39.57723 39.6403,39.57723l46.9743,0l8.9774,-13.97216l-54.9401,0"/>
  <path fill="#969696" fill-rule="nonzero" id="path16199" d="m634.57199,16.25192c0,-3.85661 3.0975,-6.95449 6.9543,-6.95449c3.92,0 7.0175,3.09788 7.0175,6.95449c0,3.91974 -3.0975,7.01768 -7.0175,7.01768c-3.8568,0 -6.9543,-3.09794 -6.9543,-7.01768zm6.9543,8.97757c4.9311,0 8.9143,-3.98304 8.9143,-8.91438c0,-4.93134 -3.9832,-8.91433 -8.9143,-8.91433c-4.8684,0 -8.8511,3.98299 -8.8511,8.91433c0,4.93134 3.9827,8.91438 8.8511,8.91438zm-0.822,-14.22503c1.3908,0 1.96,0.06319 2.5924,0.31606c1.77,0.56905 1.9595,2.14958 1.9595,2.78182c0,0.12644 0,0.44255 -0.1264,0.82186c-0.0631,0.37937 -0.3159,1.13804 -1.2011,1.70703c-0.1264,0.06324 -0.1896,0.12644 -0.4424,0.25287l2.276,4.10948l-2.2128,0l-2.0232,-3.79336l-1.3907,0l0,3.79336l-1.96,0l0,-9.98912l2.5287,0zm0.6956,4.55198c0.632,-0.06319 1.2644,-0.06319 1.6436,-0.63224c0.1895,-0.25287 0.2532,-0.50574 0.2532,-0.88511c0,-0.50574 -0.3164,-0.9483 -0.7588,-1.20122c-0.4428,-0.18963 -0.8852,-0.18963 -1.8336,-0.18963l-0.5687,0l0,2.9082l1.2643,0"/>
 </g>
</svg>