<svg xmlns="http://www.w3.org/2000/svg" version="1.0" width="100.000000" height="100.000000" preserveAspectRatio="xMidYMid meet"><rect id="backgroundrect" width="100%" height="100%" x="0" y="0" fill="none" stroke="none"/>


<g class="currentLayer" style=""><title>Layer 1</title><g transform="translate(0,100) scale(0.10000000149011612,-0.10000000149011612) " fill="#8a8ae9" stroke="none" id="svg_1" class="selected" fill-opacity="1">
<path d="M165 928 c-3 -7 -4 -204 -3 -438 l3 -425 85 0 85 0 3 136 3 137 137 4 c111 3 146 8 183 25 63 28 116 77 147 137 22 43 26 64 27 136 0 74 -4 93 -29 143 -34 70 -95 118 -177 141 -72 21 -457 23 -464 4z m415 -150 c109 -55 109 -220 0 -275 -37 -19 -60 -23 -142 -23 l-98 0 0 160 0 160 98 0 c82 0 105 -4 142 -22z" id="svg_2" fill="#8a8ae9" fill-opacity="1"/>
</g></g></svg>